<?xml version="1.0" encoding="UTF-8"?>
<!DOCTYPE svg PUBLIC "-//W3C//DTD SVG 1.1//EN" "http://www.w3.org/Graphics/SVG/1.1/DTD/svg11.dtd">
<!-- Creator: CorelDRAW 2019 (64-Bit) -->
<svg xmlns="http://www.w3.org/2000/svg" xml:space="preserve" width="7.1966mm" height="10.795mm" version="1.1" style="shape-rendering:geometricPrecision; text-rendering:geometricPrecision; image-rendering:optimizeQuality; fill-rule:evenodd; clip-rule:evenodd"
viewBox="0 0 719.66 1079.5"
 xmlns:xlink="http://www.w3.org/1999/xlink"
 xmlns:xodm="http://www.corel.com/coreldraw/odm/2003">
 <defs>
  <style type="text/css">
   <![CDATA[
    .fil0 {fill:#FF9402}
   ]]>
  </style>
 </defs>
 <g id="Layer_x0020_1">
  <metadata id="CorelCorpID_0Corel-Layer"/>
  <g id="clock-1.svg">
   <path class="fil0" d="M475.44 934.72c21.06,-8.2 45.39,9.74 40.87,31.88 -25.93,100.54 -84.15,127.01 -155.57,127.01l-57.68 0c-71.44,0 -130.18,-26.47 -155.59,-127.53 -4.36,-22.18 19.85,-39.98 40.89,-31.74 45.22,17.72 93.56,26.96 143.26,26.96 49.94,0 98.54,-8.92 143.82,-26.58z"/>
   <path class="fil0" d="M516.33 162.28c4.68,22.36 -19.99,40.58 -41.25,32.2 -44.34,-17.44 -92.7,-26.92 -143.44,-26.92 -50.68,0 -98.94,9.58 -143.32,27.06 -21.06,8.28 -45.35,-9.64 -40.83,-31.82 25.41,-101.06 84.13,-127.53 155.57,-127.53l57.68 0c71.44,0 129.66,26.47 155.59,127.01z"/>
   <path class="fil0" d="M331.6 220.48c-189.99,0 -343.97,153.98 -343.97,343.97 0,111.12 52.38,209.57 133.88,272.53l0.52 0c58.23,44.98 130.73,71.44 209.57,71.44 79.9,0 152.92,-26.98 211.15,-72.5l0.52 0c80.44,-62.96 132.3,-161.41 132.3,-271.47 0,-189.99 -153.98,-343.97 -343.97,-343.97zm102.12 469.91c-7.92,7.94 -17.98,11.64 -28.04,11.64 -10.06,0 -20.1,-3.7 -28.04,-11.64l-74.08 -74.08c-7.42,-7.4 -11.64,-17.46 -11.64,-28.04l0 -147.64c0,-21.7 17.98,-39.7 39.68,-39.7 21.7,0 39.68,18 39.68,39.7l0 131.22 62.44 62.46c15.36,15.34 15.36,40.74 0,56.08z"/>
  </g>
 </g>
</svg>
