<?xml version="1.0" encoding="UTF-8"?>
<!DOCTYPE svg PUBLIC "-//W3C//DTD SVG 1.1//EN" "http://www.w3.org/Graphics/SVG/1.1/DTD/svg11.dtd">
<!-- Creator: CorelDRAW 2019 (64-Bit) -->
<svg xmlns="http://www.w3.org/2000/svg" xml:space="preserve" width="9.8776mm" height="10.795mm" version="1.1" style="shape-rendering:geometricPrecision; text-rendering:geometricPrecision; image-rendering:optimizeQuality; fill-rule:evenodd; clip-rule:evenodd"
viewBox="0 0 987.76 1079.5"
 xmlns:xlink="http://www.w3.org/1999/xlink"
 xmlns:xodm="http://www.corel.com/coreldraw/odm/2003">
 <defs>
  <style type="text/css">
   <![CDATA[
    .fil0 {fill:#12ACBE}
   ]]>
  </style>
 </defs>
 <g id="Layer_x0020_1">
  <metadata id="CorelCorpID_0Corel-Layer"/>
  <path id="aeroplane.svg" class="fil0" d="M60.78 57.72c12.17,-9.03 25.87,-15.48 40.16,-19.07 14.22,-3.56 29.32,-4.35 44.45,-2.12 15.13,2.22 29.39,7.33 41.97,14.85 12.62,7.54 23.85,17.64 32.89,29.78l155.01 208.64 505.99 -26.41c8.15,-0.43 16.1,1.22 23.51,4.09 9.68,3.75 18.46,9.68 25.73,16.05 7.61,6.85 14.39,14.44 20.13,22.56 5.92,8.37 10.83,17.27 14.57,26.47 3.73,9.26 6.62,19.66 7.4,30.19l-0.02 0.15c0.6,8.02 -0.03,16.21 -2.47,23.96 -2.7,8.62 -7.49,15.95 -13.94,21.6 -7.08,6.2 -16.37,10.75 -27.4,13.26l-389.07 89.28 156.87 211.02 17.37 1.15c22.46,1.49 42.92,3.08 59.97,5.73l0.15 0.02c16.61,2.56 31.99,6.29 46.27,12.12 16.7,6.8 31.37,16.26 45.35,28.72 15.02,13.4 29.87,30.76 45.9,52.3l0.52 1.01 -0.04 1.31c-0.1,0.67 -0.28,1.18 -0.5,1.46 -0.33,0.44 -0.78,0.8 -1.24,0.99l-212.08 88.15 -145.58 177.55 -1.4 0.97c-0.31,0.11 -0.85,0.14 -1.53,0.04 -1.44,-0.4 -1.03,-0.06 -2.02,-1.17 -16.17,-21.76 -28.57,-41.02 -36.92,-58.97 -7.9,-16.97 -12.75,-33.74 -14.45,-51.71 -1.47,-15.36 -0.6,-31.2 1.73,-47.92 2.41,-17.16 6.76,-37.19 11.81,-59.1l3.92 -16.98 -156.85 -210.97 -197.6 346.89c-5.65,9.95 -12.62,17.53 -20.44,22.43 -7.26,4.54 -15.64,6.99 -24.69,7.07l-0.14 -0.02c-8.18,0.11 -16.23,-1.63 -23.74,-4.49 -9.94,-3.85 -19.08,-9.57 -26.81,-15.77 -8.11,-6.65 -15.27,-13.88 -21.23,-21.54l0.03 -0.15c-6.09,-7.81 -11.38,-16.49 -15.68,-25.78 -4.07,-8.76 -7.23,-18.88 -8.02,-29.23 -0.61,-7.68 0.17,-15.74 2.99,-23.62l-0.14 -0.05 171.05 -476.91c-17.29,-23.23 -154.82,-208.51 -155.18,-208.56 -9,-12.07 -15.4,-25.69 -18.99,-39.95l0.02 -0.15c-3.58,-14.24 -4.37,-29.33 -2.16,-44.36 2.21,-15.04 7.32,-29.25 14.85,-41.85l0.02 -0.15c7.55,-12.64 17.61,-23.83 29.7,-32.81z"/>
 </g>
</svg>
